<svg id="Componente_98_2" data-name="Componente 98 – 2" xmlns="http://www.w3.org/2000/svg" width="52" height="61" viewBox="0 0 52 61">
  <g id="aquário" transform="translate(6.001 0)">
    <g id="Boundary" transform="translate(-0.001 0)" fill="#ff0a6b" stroke="rgba(0,0,0,0)" stroke-width="1" opacity="0">
      <rect width="40" height="40" stroke="none"/>
      <rect x="0.5" y="0.5" width="39" height="39" fill="none"/>
    </g>
    <path id="Path_zodiac-aquarius" data-name="Path / zodiac-aquarius" d="M23.387,16.25l-4.98-4.98-4.98,4.98-4.98-4.98-3.8,3.818L2.29,12.731,8.448,6.59l4.98,4.98,4.98-4.98,4.98,4.98,4.98-4.98,6.158,6.141-2.357,2.357-3.8-3.818-4.98,4.98m4.98,4.98,3.8,3.818,2.357-2.357-6.158-6.141-4.98,4.98-4.98-4.98-4.98,4.98-4.98-4.98L2.29,22.691l2.357,2.357,3.8-3.818,4.98,4.98,4.98-4.98,4.98,4.98Z" transform="translate(1.06 3.533)" fill="#ff0a6b"/>
  </g>
  <text id="Aquário-2" data-name="Aquário" transform="translate(26 57)" fill="#231f20" font-size="14" font-family="SegoeUI, Segoe UI"><tspan x="-24.391" y="0">Aquário</tspan></text>
</svg>
