<svg xmlns="http://www.w3.org/2000/svg" width="44" height="44" viewBox="0 0 44 44">
  <g id="youtube" transform="translate(0.044)">
    <g id="Retângulo_207" data-name="Retângulo 207" transform="translate(-0.044)" fill="none" stroke="#ff0a6b" stroke-width="1.5">
      <rect width="44" height="44" rx="22" stroke="none"/>
      <rect x="0.75" y="0.75" width="42.5" height="42.5" rx="21.25" fill="none"/>
    </g>
    <g id="Icon_feather-youtube" data-name="Icon feather-youtube" transform="translate(13.113 14)">
      <path id="Caminho_720" data-name="Caminho 720" d="M21.08,8.348a2.625,2.625,0,0,0-1.764-1.94C17.753,6,11.5,6,11.5,6s-6.254,0-7.818.446a2.625,2.625,0,0,0-1.764,1.94A29.983,29.983,0,0,0,1.5,13.519a29.983,29.983,0,0,0,.418,5.171,2.615,2.615,0,0,0,1.764,1.863C5.245,21,11.5,21,11.5,21s6.254,0,7.818-.446a2.625,2.625,0,0,0,1.764-1.94,29.982,29.982,0,0,0,.418-5.094,29.983,29.983,0,0,0-.418-5.171Z" transform="translate(-1.499 -6)" fill="none" stroke="#ff0a6b" stroke-linecap="round" stroke-linejoin="round" stroke-width="1.5"/>
      <path id="Caminho_721" data-name="Caminho 721" d="M14.625,18.643l5.207-2.961L14.625,12.72Z" transform="translate(-6.66 -8.161)" fill="none" stroke="#ff0a6b" stroke-linecap="round" stroke-linejoin="round" stroke-width="1.5"/>
    </g>
  </g>
</svg>
