<svg id="instagram" xmlns="http://www.w3.org/2000/svg" width="44" height="44" viewBox="0 0 44 44">
  <g id="instagram-2" data-name="instagram" fill="none" stroke="#ff0a6b" stroke-width="1.5">
    <rect width="44" height="44" rx="22" stroke="none"/>
    <rect x="0.75" y="0.75" width="42.5" height="42.5" rx="21.25" fill="none"/>
  </g>
  <g id="icon" transform="translate(14 14)">
    <path id="Caminho_722" data-name="Caminho 722" d="M7,3h8a4,4,0,0,1,4,4v8a4,4,0,0,1-4,4H7a4,4,0,0,1-4-4V7A4,4,0,0,1,7,3Z" transform="translate(-3 -3)" fill="none" stroke="#ff0a6b" stroke-linecap="round" stroke-linejoin="round" stroke-width="1.5"/>
    <path id="Caminho_723" data-name="Caminho 723" d="M18.838,14.84a3.4,3.4,0,1,1-2.869-2.869A3.4,3.4,0,0,1,18.838,14.84Z" transform="translate(-7.437 -7.373)" fill="none" stroke="#ff0a6b" stroke-linecap="round" stroke-linejoin="round" stroke-width="1.5"/>
    <path id="Caminho_724" data-name="Caminho 724" d="M26.25,9.75h0" transform="translate(-13.85 -6.15)" fill="none" stroke="#ff0a6b" stroke-linecap="round" stroke-linejoin="round" stroke-width="1.5"/>
  </g>
</svg>
