<svg xmlns="http://www.w3.org/2000/svg" width="196" height="77.453" viewBox="0 0 196 77.453">
  <g id="logo" transform="translate(-875 -334.547)">
    <path id="elipse" d="M40.613,22.467a5.523,5.523,0,1,0-5.523-5.523,5.524,5.524,0,0,0,5.523,5.523" transform="translate(866.172 323.127)" fill="#ff0a6b"/>
    <path id="nome" d="M38.956,45.532a7.322,7.322,0,1,1-7.322-7.284,7.3,7.3,0,0,1,7.322,7.284m24.319,0A31.489,31.489,0,0,0,39.738,15.138a8.156,8.156,0,0,1-16.208,0A31.482,31.482,0,1,0,63.268,45.532m43.753-7.069h.477V14.412a31.759,31.759,0,0,0-9.326,2.882A17.206,17.206,0,0,0,92.89,20.51V16.064H68V74.792H92.89V38.478h14.122v-.015Zm38.717,6.883a7.322,7.322,0,1,1-7.322-7.284,7.3,7.3,0,0,1,7.322,7.284m21.377.207A29.121,29.121,0,0,0,138.1,16.331a29.92,29.92,0,0,0-3.382.2V0H112.279V74.777h22.435c1.959.037,2.235,0,3.382,0a29.121,29.121,0,0,0,29.019-29.223M196,16.086H172.113V74.792H196v-58.7Z" transform="translate(875 335)" fill="#231f20"/>
  </g>
</svg>
