<svg xmlns="http://www.w3.org/2000/svg" width="154.021" height="29" viewBox="0 0 154.021 29">
  <g id="Grupo_1754" data-name="Grupo 1754" transform="translate(-984 -3925.502)">
    <text id="Por" transform="translate(984 3945)" fill="#231f20" font-size="12" font-family="SegoeUI, Segoe UI"><tspan x="0" y="0">Por</tspan></text>
    <g id="logo-personare" transform="translate(1020 3925.002)">
      <path id="Caminho_2240" data-name="Caminho 2240" d="M12.684,16.78c.176-.512-.26-1.526,0-2a4.662,4.662,0,0,1-2-4c0-3.009,2.973-5,6-5a4.706,4.706,0,0,1,5,5,4.662,4.662,0,0,1-2,4,18.02,18.02,0,0,1,1,2,7.258,7.258,0,0,0,3-6,7,7,0,0,0-14,0A7.261,7.261,0,0,0,12.684,16.78Z" transform="translate(-0.683 -0.28)" fill="#b31983"/>
      <path id="Caminho_2241" data-name="Caminho 2241" d="M16.281,21.473c-.332,2.7-2.2,4-5,4-3.027,0-6-1.992-6-5a6.424,6.424,0,0,1,6-6c.758,0,1.342.723,2,1,.295-.456.63-.6,1-1a6.755,6.755,0,0,0-3-1,7,7,0,0,0,0,14c3.751,0,6.762-3.33,7-7C17.746,20.591,16.824,21.453,16.281,21.473Z" transform="translate(-0.28 -0.973)" fill="#73308a"/>
      <path id="Caminho_2242" data-name="Caminho 2242" d="M22.088,13.473a6.749,6.749,0,0,0-3,1c.37.4.7.544,1,1,.658-.277,1.242-1,2-1,3.027,0,5,2.992,5,6a4.706,4.706,0,0,1-5,5c-2.8,0-5.668-1.3-6-4-.543-.02-.465-.882-1-1,.238,3.67,3.249,7,7,7a7,7,0,0,0,0-14Z" transform="translate(-1.088 -0.973)" fill="#f93549"/>
      <path id="Caminho_2243" data-name="Caminho 2243" d="M11.807,18.382c.293,0-.251-.114,0,0,.218-1.065,1.436-2.07,2-3a7.991,7.991,0,0,1,2-2,2.333,2.333,0,0,1-1-1c-.225.189-.79-.21-1,0a11.55,11.55,0,0,0-3,6C10.932,18.357,11.673,18.382,11.807,18.382Z" transform="translate(-0.807 -0.882)" fill="#ee4043"/>
      <path id="Caminho_2244" data-name="Caminho 2244" d="M28.809,12.183a9.275,9.275,0,0,0-7-3,13.84,13.84,0,0,0-4,1c.314.348,1,.5,1,1,0,.022,0-.022,0,0,.962-.338,1.923,0,3,0a8.854,8.854,0,0,1,9,9,8.854,8.854,0,0,1-9,9c-4.515,0-8.19-2.743-9-7-.309.2-.6,0-1,0-.124,0-.881.022-1,0a9.179,9.179,0,0,0,3,5,11.571,11.571,0,0,0,8,3,9.271,9.271,0,0,0,7-3c2.025-2.013,4-4.152,4-7S30.834,14.2,28.809,12.183Z" transform="translate(-0.809 -0.683)" fill="#f93549"/>
      <path id="Caminho_2245" data-name="Caminho 2245" d="M18.326,13.382a7.968,7.968,0,0,1,2,2,9.042,9.042,0,0,1,1,3,2.935,2.935,0,0,1,1,0c.133,0-.126-.025,0,0a11.54,11.54,0,0,0-3-6c-.21-.209.225.189,0,0A2.326,2.326,0,0,1,18.326,13.382Z" transform="translate(-1.326 -0.882)" fill="#6d2c90"/>
      <path id="Caminho_2246" data-name="Caminho 2246" d="M21,22.183c-.4,0-.691.2-1,0-.81,4.257-4.487,7-9,7-5.1,0-10-3.928-10-9s4.9-9,10-9c1.075,0,2.039-.338,3,0,0-.022,0,.022,0,0,0-.5-.316-.651,0-1-1.134-.4-1.763-1-3-1a11.571,11.571,0,0,0-8,3,11.522,11.522,0,0,0-3,8,9.238,9.238,0,0,0,3,7,11.571,11.571,0,0,0,8,3,9.273,9.273,0,0,0,7-3,9.167,9.167,0,0,0,3-5C20.881,22.205,21.126,22.183,21,22.183Z" transform="translate(0 -0.683)" fill="#73308a"/>
      <path id="Caminho_2247" data-name="Caminho 2247" d="M19.955,21.035a9.193,9.193,0,0,1-3,1,9.193,9.193,0,0,1-3-1c-.024.452-.72.678-1,1a13.409,13.409,0,0,0,4,1c1.259,0,1.849-.589,3-1C19.676,21.713,19.98,21.487,19.955,21.035Z" transform="translate(-0.955 -1.535)" fill="#b3258e"/>
      <path id="Caminho_2248" data-name="Caminho 2248" d="M23.4,3.5a9.271,9.271,0,0,0-7-3,11.571,11.571,0,0,0-8,3,9.238,9.238,0,0,0-3,7,11.525,11.525,0,0,0,3,8c.193.192.8-.175,1,0a1.846,1.846,0,0,1,1-1,8.984,8.984,0,0,1-3-7,8.854,8.854,0,0,1,9-9,8.854,8.854,0,0,1,9,9,8.98,8.98,0,0,1-3,7,1.842,1.842,0,0,1,1,1c.2-.175-.193.19,0,0a11.525,11.525,0,0,0,3-8A9.238,9.238,0,0,0,23.4,3.5Z" transform="translate(-0.397)" fill="#b31983"/>
      <path id="Caminho_2249" data-name="Caminho 2249" d="M13.566,20.758a2.123,2.123,0,0,1-2,2,2,2,0,0,1,0-4c.293,0-.251-.114,0,0,.1-.478.831-.543,1-1-.381-.144-.569-1-1-1a4.494,4.494,0,0,0-4,4c0,1.883,2.105,3,4,3,1.723,0,2.756-1.353,3-3C14.087,20.665,14.039,20.929,13.566,20.758Z" transform="translate(-0.567 -1.258)" fill="#73308a"/>
      <path id="Caminho_2250" data-name="Caminho 2250" d="M22.377,16.758c-.431,0-.619.856-1,1,.169.457-.1.522,0,1a2.935,2.935,0,0,1,1,0,2,2,0,0,1,0,4,2.124,2.124,0,0,1-2-2c-.472.171-1.519-.095-2,0,.244,1.646,2.277,3,4,3a2.747,2.747,0,0,0,3-3C25.377,18.875,24.27,16.758,22.377,16.758Z" transform="translate(-1.377 -1.258)" fill="#f93549"/>
      <path id="Caminho_2251" data-name="Caminho 2251" d="M14.971,14.065a9.184,9.184,0,0,1,1-1,2.76,2.76,0,0,1-1-2,2,2,0,0,1,4,0,2.767,2.767,0,0,1-1,2,9.192,9.192,0,0,1,1,1,3.893,3.893,0,0,0,1-3,2.747,2.747,0,0,0-3-3c-1.895,0-4,1.117-4,3C12.969,12.147,14.181,13.44,14.971,14.065Z" transform="translate(-0.971 -0.565)" fill="#b31983"/>
      <path id="Caminho_2252" data-name="Caminho 2252" d="M43.832,9.179c3.169,0,5,1.276,5,4a4.722,4.722,0,0,1-5,5h-3v4h-2v-13Zm-3,7h3a2.809,2.809,0,0,0,3-3c0-1.648-1.056-2-3-2h-3Z" transform="translate(-2.833 -0.679)" fill="#1f2b7d"/>
      <path id="Caminho_2253" data-name="Caminho 2253" d="M59.67,18.41h-7c.325,1.47,1.488,2,3,2,1.045,0,1.3-.282,2-1l2,1a5.62,5.62,0,0,1-4,2,4.823,4.823,0,0,1-5-5c0-2.884,1.154-4.983,4-5C58.036,12.41,59.922,14.97,59.67,18.41Zm-2-2c-.071-1.541-.433-2-2-2-1.512,0-2.765.477-3,2Z" transform="translate(-3.67 -0.91)" fill="#1f2b7d"/>
      <path id="Caminho_2254" data-name="Caminho 2254" d="M63.51,14.41c.648-1.29,2.489-2,4-2v2c-1.925-.107-3.839,1.37-4,3v5h-2v-10h2Z" transform="translate(-4.51 -0.91)" fill="#1f2b7d"/>
      <path id="Caminho_2255" data-name="Caminho 2255" d="M74.945,13.409l-1,2c-.846-.52-1.154-1-2-1-.809,0-1,.319-1,1,0,1.754,5.018.54,5,4,0,1.952-2.072,3-4,3-1.4,0-3.046-1.139-4-2l1-1a4.5,4.5,0,0,0,3,1c.881,0,2-.284,2-1,0-1.952-5.02-.56-5-4a2.75,2.75,0,0,1,3-3A4.985,4.985,0,0,1,74.945,13.409Z" transform="translate(-4.945 -0.908)" fill="#1f2b7d"/>
      <path id="Caminho_2256" data-name="Caminho 2256" d="M98.488,16.41v6h-2v-6c0-1.434-1.56-2-3-2-1.585.018-1.856,1.513-2,3v5h-3v-10h3v2a2.977,2.977,0,0,1,3-2A3.945,3.945,0,0,1,98.488,16.41Z" transform="translate(-6.488 -0.91)" fill="#1f2b7d"/>
      <path id="Caminho_2257" data-name="Caminho 2257" d="M106.295,21.41c-.683.843-1.614,1-3,1a2.754,2.754,0,0,1-3-3c0-1.737.7-2.982,3-3h3a1.748,1.748,0,0,0-2-2,5.641,5.641,0,0,0-3,1l-1-2a6.575,6.575,0,0,1,4-1c2.468,0,3.982.9,4,3v7h-2v-1Zm0-3v-1h-2a1.957,1.957,0,0,0-2,2c0,.86-.15,1,1,1C104.776,20.41,106.4,19.891,106.295,18.41Z" transform="translate(-7.295 -0.91)" fill="#1f2b7d"/>
      <path id="Caminho_2258" data-name="Caminho 2258" d="M113.086,14.41a3.082,3.082,0,0,1,3-2v2c-1.926-.107-2.838,1.37-3,3v5h-2v-10h2Z" transform="translate(-8.086 -0.91)" fill="#1f2b7d"/>
      <path id="Caminho_2259" data-name="Caminho 2259" d="M126.529,18.41h-8c.324,1.47,1.489,2,3,2a4.366,4.366,0,0,0,3-1l1,1a5.62,5.62,0,0,1-4,2,4.821,4.821,0,0,1-5-5,4.883,4.883,0,0,1,5-5C124.9,12.41,126.781,14.97,126.529,18.41Zm-2-2c-.073-1.541-1.433-2-3-2-1.512,0-2.766.477-3,2Z" transform="translate(-8.529 -0.91)" fill="#1f2b7d"/>
      <path id="Caminho_2260" data-name="Caminho 2260" d="M81.613,22.41a5,5,0,1,1,5-5A5.066,5.066,0,0,1,81.613,22.41Zm0-8a3,3,0,1,0,3,3A3.057,3.057,0,0,0,81.613,14.41Z" transform="translate(-5.613 -0.91)" fill="#1f2b7d"/>
    </g>
  </g>
</svg>
