<svg id="Componente_99_2" data-name="Componente 99 – 2" xmlns="http://www.w3.org/2000/svg" width="44" height="61" viewBox="0 0 44 61">
  <text id="Peixes" transform="translate(22 57)" fill="#231f20" font-size="14" font-family="SegoeUI, Segoe UI"><tspan x="-18.86" y="0">Peixes</tspan></text>
  <g id="peixes-2" data-name="peixes" transform="translate(2)">
    <g id="Boundary" transform="translate(0)" fill="#ff0a6b" stroke="rgba(0,0,0,0)" stroke-width="1" opacity="0">
      <rect width="40" height="40" stroke="none"/>
      <rect x="0.5" y="0.5" width="39" height="39" fill="none"/>
    </g>
    <path id="Path_zodiac-pisces" data-name="Path / zodiac-pisces" d="M30.667,16.96H27.333A39.6,39.6,0,0,1,30.35,3.327L27.333,2.06A43.238,43.238,0,0,0,24,16.96H10.667A43.238,43.238,0,0,0,7.333,2.06l-3.1,1.267a39.53,39.53,0,0,1,3.1,13.633H4v3.333H7.333A39.6,39.6,0,0,1,4.317,33.926l3.017,1.267a43.238,43.238,0,0,0,3.333-14.9H24a43.238,43.238,0,0,0,3.333,14.9l3.1-1.267a39.53,39.53,0,0,1-3.1-13.633h3.333Z" transform="translate(2.355 1.273)" fill="#ff0a6b"/>
  </g>
</svg>
